name C:\Users\u0150099\Documents\master_thesis\3dpredictsim\Results\debug\Fal_s1_mtjc2_sc_cspx10_oy2_ATx70_Fpsl10_MTc2_MTPm_k1_d01_MTJm_nl_MG_exp5_table_d01_PF_Natali2010_x3_ls146_ig21_test1.mot
datacolumns 128
datarows 4
range 0.00000000 0.03467414
endheader
time	pelvis_tilt	pelvis_list	pelvis_rotation	pelvis_tx	pelvis_ty	pelvis_tz	hip_flexion_l	hip_adduction_l	hip_rotation_l	hip_flexion_r	hip_adduction_r	hip_rotation_r	knee_angle_l	knee_angle_r	ankle_angle_l	ankle_angle_r	subtalar_angle_l	subtalar_angle_r	mtj_angle_l	mtj_angle_r	mtp_angle_l	mtp_angle_r	lumbar_extension	lumbar_bending	lumbar_rotation	arm_flex_l	arm_add_l	arm_rot_l	arm_flex_r	arm_add_r	arm_rot_r	elbow_flex_l	elbow_flex_r	pro_sup_l	pro_sup_r	glut_med1_l/activation	glut_med2_l/activation	glut_med3_l/activation	glut_min1_l/activation	glut_min2_l/activation	glut_min3_l/activation	semimem_l/activation	semiten_l/activation	bifemlh_l/activation	bifemsh_l/activation	sar_l/activation	add_long_l/activation	add_brev_l/activation	add_mag1_l/activation	add_mag2_l/activation	add_mag3_l/activation	tfl_l/activation	pect_l/activation	grac_l/activation	glut_max1_l/activation	glut_max2_l/activation	glut_max3_l/activation	iliacus_l/activation	psoas_l/activation	quad_fem_l/activation	gem_l/activation	peri_l/activation	rect_fem_l/activation	vas_med_l/activation	vas_int_l/activation	vas_lat_l/activation	med_gas_l/activation	lat_gas_l/activation	soleus_l/activation	tib_post_l/activation	flex_dig_l/activation	flex_hal_l/activation	tib_ant_l/activation	per_brev_l/activation	per_long_l/activation	per_tert_l/activation	ext_dig_l/activation	ext_hal_l/activation	ercspn_l/activation	intobl_l/activation	extobl_l/activation	glut_med1_r/activation	glut_med2_r/activation	glut_med3_r/activation	glut_min1_r/activation	glut_min2_r/activation	glut_min3_r/activation	semimem_r/activation	semiten_r/activation	bifemlh_r/activation	bifemsh_r/activation	sar_r/activation	add_long_r/activation	add_brev_r/activation	add_mag1_r/activation	add_mag2_r/activation	add_mag3_r/activation	tfl_r/activation	pect_r/activation	grac_r/activation	glut_max1_r/activation	glut_max2_r/activation	glut_max3_r/activation	iliacus_r/activation	psoas_r/activation	quad_fem_r/activation	gem_r/activation	peri_r/activation	rect_fem_r/activation	vas_med_r/activation	vas_int_r/activation	vas_lat_r/activation	med_gas_r/activation	lat_gas_r/activation	soleus_r/activation	tib_post_r/activation	flex_dig_r/activation	flex_hal_r/activation	tib_ant_r/activation	per_brev_r/activation	per_long_r/activation	per_tert_r/activation	ext_dig_r/activation	ext_hal_r/activation	ercspn_r/activation	intobl_r/activation	extobl_r/activation	
          0.00000000	         -0.27198241	          1.25731057	          1.55295112	          0.00000000	          0.89392110	         -0.03220830	        -16.70730111	          4.97128215	         -4.65171944	         30.95386165	          2.03608755	          6.17774282	        -15.20635556	        -14.96946022	         12.74167350	          2.71067398	          9.65340123	          1.49747599	          1.52254108	          0.02310662	          3.04877298	          2.74296758	         -7.76179707	         -3.10969547	         -0.45845999	         12.01539849	        -30.82636954	          2.36509037	          8.53149969	        -32.09977615	          1.40296425	         54.61383707	         49.48118029	         86.51662706	         86.51662706	          0.64977729	          0.56911178	          0.49753428	          0.61632891	          0.60311447	          0.58285979	          0.51889217	          0.55524496	          0.54172461	          0.57782450	          0.59857687	          0.55123314	          0.54296193	          0.55517877	          0.54620209	          0.55503527	          0.62167112	          0.58164770	          0.56870757	          0.52279397	          0.52092212	          0.51969869	          0.64435323	          0.64787283	          0.49663998	          0.56049187	          0.55903284	          0.63777304	          0.55926258	          0.55489838	          0.52921498	          0.53278036	          0.56408090	          0.49847669	          0.64100633	          0.59081730	          0.59727290	          0.61002950	          0.49897487	          0.39063609	          0.56986918	          0.54367990	          0.57064585	          0.58958466	          0.41501009	          0.50689494	          0.42932304	          0.47373353	          0.50743494	          0.54801248	          0.54670000	          0.54580036	          0.60244228	          0.58116121	          0.56088303	          0.74779663	          0.66181494	          0.62640044	          0.59499029	          0.56648299	          0.54160759	          0.43155509	          0.60071971	          0.58580299	          0.61257843	          0.50149776	          0.43577940	          0.41817480	          0.76975383	          0.75497270	          0.61763071	          0.60493256	          0.57616788	          0.53775905	          0.41580312	          0.40706267	          0.38302504	          0.32362987	          0.43394423	          0.13339648	          0.56775723	          0.50490533	          0.52892048	          0.65450645	          0.54531990	          0.56379228	          0.60179887	          0.76049475	          0.72977368	          0.71431963	          0.68249619	          0.54844464	
          0.01155805	         -0.37021585	          0.91499285	          1.58396485	          0.01720359	          0.89105569	         -0.03200428	        -16.96594572	          4.41896248	         -4.99992930	         31.33757007	          2.76883976	          6.10921535	        -16.64088372	        -16.36323021	         11.91280782	          2.48430846	          9.89565551	          1.64887339	          1.46623476	         -0.04039686	          3.78318885	          3.43891352	         -7.37162271	         -2.66627874	         -0.34964076	         12.62320829	        -30.85468168	          2.05410121	          8.88791638	        -32.27758576	          1.31043562	         55.76399195	         49.90108040	         86.51662706	         86.51662706	          0.65179954	          0.55637085	          0.47090628	          0.61807454	          0.60265139	          0.57738860	          0.51810093	          0.56444271	          0.54371083	          0.58873045	          0.59910663	          0.54903376	          0.54019910	          0.55415134	          0.54733349	          0.55479856	          0.61867859	          0.58103620	          0.56932841	          0.52186618	          0.51970144	          0.51845289	          0.64522270	          0.64954345	          0.47760391	          0.54954189	          0.55308389	          0.59684255	          0.53700452	          0.53118081	          0.49921737	          0.54031476	          0.56933075	          0.48485850	          0.64988340	          0.59422213	          0.59920699	          0.60992303	          0.47689021	          0.35777483	          0.56360645	          0.52291593	          0.55951602	          0.58268939	          0.40136400	          0.50817208	          0.43099410	          0.47757570	          0.51399978	          0.54636507	          0.54580375	          0.54788549	          0.62881671	          0.59708955	          0.59830100	          0.74136296	          0.65532334	          0.62127509	          0.59757978	          0.57043471	          0.54805265	          0.45596561	          0.59252222	          0.58398780	          0.61448059	          0.50880481	          0.45074349	          0.44179809	          0.73961540	          0.72398310	          0.61896245	          0.60438280	          0.58144611	          0.51272318	          0.41055425	          0.40167979	          0.37553125	          0.34500850	          0.44929246	          0.14886981	          0.57185375	          0.50599719	          0.52923677	          0.66464418	          0.54452692	          0.56028111	          0.59741215	          0.74731237	          0.71508211	          0.71214733	          0.68405382	          0.54389666	
          0.02311609	         -0.49472897	          0.49859226	          1.64059068	          0.03473318	          0.88829495	         -0.03195255	        -17.15721946	          3.75273782	         -5.23225626	         31.68326373	          3.46456335	          6.04233463	        -18.15723442	        -17.97637179	         10.96419656	          1.14480471	         10.17441778	          2.08165258	          1.24870687	          0.20350495	          4.56602846	          2.61918495	         -6.92779391	         -2.10842484	         -0.28409100	         13.32638638	        -30.87126700	          1.74515274	          9.30025566	        -32.45806707	          1.17289831	         56.94789698	         50.32703166	         86.51662706	         86.51662706	          0.65609122	          0.53547866	          0.43771129	          0.61991721	          0.60029466	          0.56811879	          0.51748070	          0.57588487	          0.54537234	          0.60054473	          0.59894438	          0.55697091	          0.54331296	          0.55344544	          0.54883685	          0.55511490	          0.61584699	          0.58205369	          0.57099550	          0.52057015	          0.51794568	          0.51670510	          0.65077041	          0.65668404	          0.45401825	          0.53512805	          0.54383764	          0.55103620	          0.50996998	          0.50259585	          0.46450355	          0.52996755	          0.56639015	          0.44626902	          0.65569105	          0.59731618	          0.60012894	          0.61983288	          0.44964927	          0.32466492	          0.55697153	          0.50470546	          0.54806919	          0.60857050	          0.39957322	          0.51487810	          0.45990037	          0.49905673	          0.53119144	          0.55165465	          0.55184399	          0.55596918	          0.65639586	          0.61516282	          0.63784951	          0.71547088	          0.63942707	          0.61263374	          0.59848828	          0.57557480	          0.55882070	          0.49810967	          0.58239369	          0.58120385	          0.61262294	          0.52753692	          0.48711636	          0.48693483	          0.69387831	          0.68072510	          0.61416250	          0.60178671	          0.58624900	          0.48497173	          0.42513417	          0.41626645	          0.38756402	          0.34800818	          0.45243260	          0.15129256	          0.57197939	          0.50424986	          0.52692030	          0.64798202	          0.54580300	          0.56310333	          0.59170334	          0.75768923	          0.72318260	          0.70465131	          0.66839626	          0.52963476	
          0.03467414	         -0.64192764	          0.01673143	          1.73537690	          0.05255172	          0.88582488	         -0.03201543	        -17.23642438	          2.95986381	         -5.34254235	         32.01936369	          4.10165273	          5.80842622	        -19.80640924	        -19.93177519	          9.81790711	         -0.53347849	         10.54877905	          2.31439990	          0.85366732	          0.29910201	          5.43474799	          2.03723742	         -6.43404640	         -1.46658643	         -0.27384567	         14.05537363	        -30.86830058	          1.47188052	          9.69464022	        -32.63426262	          1.00011328	         58.11009094	         50.70056486	         86.51662706	         86.51662706	          0.67171800	          0.50773759	          0.39973314	          0.62704101	          0.59866461	          0.55536299	          0.51711638	          0.59027270	          0.54630765	          0.62198549	          0.60000209	          0.56577548	          0.54575990	          0.55007962	          0.54981934	          0.55463231	          0.61421657	          0.58326348	          0.57190447	          0.51859829	          0.51505888	          0.51337653	          0.66946069	          0.67565390	          0.42292351	          0.51522150	          0.53104770	          0.50194430	          0.47575199	          0.46708493	          0.42464016	          0.50639746	          0.55596347	          0.39845374	          0.65826243	          0.59948006	          0.59958649	          0.65793748	          0.41870672	          0.29298819	          0.55226188	          0.49307195	          0.53711854	          0.64355457	          0.38983666	          0.53623103	          0.49097484	          0.53139771	          0.56115119	          0.55952597	          0.56061955	          0.56622604	          0.68524442	          0.64177996	          0.67819954	          0.70110562	          0.62306194	          0.60036639	          0.59276180	          0.57815171	          0.56806231	          0.53916946	          0.57112415	          0.57771428	          0.61205286	          0.55422235	          0.53903815	          0.53823643	          0.64567074	          0.63695434	          0.61179034	          0.60039896	          0.59157810	          0.45054880	          0.43269815	          0.42372685	          0.39258203	          0.34429929	          0.45066395	          0.14697424	          0.57108825	          0.50201002	          0.52376217	          0.67387508	          0.54429087	          0.56531291	          0.59309194	          0.77787557	          0.73878437	          0.68256472	          0.67269286	          0.51492728	
